# xmcd
#
# Track frame offsets: 
#        150
#        13505
#        27987
#        42095
#        57047
#        76410
#        89167
#        102995
#        119367
#        135475
#        150187
#        162802
#        174907
#        186187
#        196877
#        208905
#
# Disc length: 2905 seconds
#
# Revision: 15
# Processed by: cddbd v1.5.2PL0 Copyright (c) Steve Scherf et al.
# Submitted via: ExactAudioCopy v1.3
#
DISCID=c70b5710
DTITLE=Various Artist - Country and Western Festival Volume 1
DYEAR=1993
DGENRE=Country
TTITLE0=Tammy Wynette - Stand By Your Man
TTITLE1=Hoyt Axton - Evangelina
TTITLE2=Freddie Fender - Mexican Rose
TTITLE3=Denise Price - One Of A Kind
TTITLE4=Bellamy Brothers - If I Said You Had A Beautiful Body
TTITLE5=Mickey Gilley - Headache Tomorrow, Or A Heartache Tonight
TTITLE6=Forrester Sisters - I Fell In Love Again Last Night
TTITLE7=Tex Williams - Deck Of Cards
TTITLE8=Johnny Rodriguez - North Of The Border
TTITLE9=Jeannie C. Riley - Harper Valley P.T.A.
TTITLE10=Charlie Rich - Behind Closed Doors
TTITLE11=Dottie West - Here Comes My Baby
TTITLE12=George Jones - She's My Rock
TTITLE13=Darrell McCall - Pins and Needles
TTITLE14=Lynn Anderson - Even Cowgirls Get The Blues
TTITLE15=Rockin' Sidney - Jalapeno Lena
EXTD=YEAR: 1999
EXTT0=
EXTT1=Axton
EXTT2=
EXTT3=Sherill
EXTT4=Bellamy
EXTT5=Gilley
EXTT6=Overstreet/Schuyler
EXTT7=Texas Tyler
EXTT8=Rodriguez
EXTT9=Hall
EXTT10=O'Dell
EXTT11=West
EXTT12=Jones
EXTT13=McCall
EXTT14=South
EXTT15=SIdney/Simien
PLAYORDER=
